<?xml version="1.0" encoding="UTF-8"?>
<svg id="Layer_1" data-name="Layer 1" xmlns="http://www.w3.org/2000/svg" viewBox="0 0 47.24 57.38">
  <defs>
    <style>
      .cls-1 {
        fill: #9bcb48;
      }

      .cls-2 {
        fill: #a5ab93;
      }
    </style>
  </defs>
  <path className="cls-1" d="m8.33,24.16c.05-.29-.05-.4-.36-.49-1.69-.5-3.34-1.1-4.74-2.23-.93-.76-1.41-1.75-1.18-2.95.12-.66.52-1.21,1.04-1.64,1.61-1.33,3.54-1.93,5.5-2.47.38-.1.77-.22,1.15-.3.17-.03.21-.15.24-.26.41-1.92.93-3.82,1.51-5.7.37-1.19.78-2.38,1.33-3.51.34-.7.69-1.39,1.1-2.05.63-1.01,1.45-1.8,2.52-2.31.26-.12.57-.15.85-.21.4,0,.81,0,1.21,0,.84.16,1.62.46,2.36.9.75.44,1.55.81,2.47.76.57-.03,1.09-.22,1.59-.48.92-.48,1.84-1.01,2.88-1.16,1.31-.19,2.49.16,3.47,1.08.79.74,1.35,1.66,1.85,2.62.62,1.18,1.06,2.44,1.48,3.7.42,1.23.8,2.48,1.12,3.74.22.86.46,1.72.65,2.6.06.28.22.31.42.36,2.02.48,4.01,1.05,5.78,2.19.59.38,1.1.84,1.45,1.44.66,1.09.38,2.33-.48,3.23-.94.98-2.13,1.55-3.36,2.05-.63.26-1.27.47-1.93.64-.27.07-.27.28-.21.46.11.31.03.62.06.93.01.13-.04.29-.13.3-.23.05-.18.21-.19.36-.02.21-.1.34-.35.31-.13-.02-.26,0-.39,0-.61,0-.79-.21-.69-.81,0-.05,0-.1,0-.16.04-.9-.12-.98-.98-.69-.53.18-1.1.27-1.65.3-.38.02-.73.13-1.1.17-.17.02-.15.16-.12.24.11.3-.02.56-.08.84-.14.6-.32,1.18-.64,1.71-.51.85-1.22,1.47-2.17,1.79-1.22.41-2.43.38-3.61-.16-1.14-.53-1.82-1.4-1.96-2.68-.03-.3-.09-.59-.07-.89.01-.19-.09-.21-.24-.21-.38,0-.76.02-1.14,0-.24-.01-.28.08-.28.29.02.57-.08,1.11-.29,1.66-.35.96-1.02,1.56-1.94,1.92-.81.32-1.65.31-2.51.25-.88-.06-1.56-.43-2.21-.96-.74-.61-1.18-1.41-1.4-2.33-.1-.4-.19-.81-.17-1.22,0-.15-.03-.21-.21-.24-1.11-.2-2.23-.3-3.32-.61-.19-.06-.33.02-.33.26,0,.47-.03.94-.02,1.41,0,.17-.09.13-.17.13-.28,0-.55,0-.83,0-.19,0-.37.02-.34-.27.02-.2-.17-.19-.3-.23,0-.46,0-.93-.01-1.39Zm16.64-8.9h-2.84c-.7-.02-1.41.02-2.11-.08-.58-.09-1.17-.08-1.73-.18-1.22-.21-2.47-.36-3.64-.78-.82-.29-1.66-.55-2.37-1.08-.24-.18-.32-.03-.36.13-.15.54-.28,1.09-.4,1.63-.03.13.02.24.12.35.54.61,1.26.91,2,1.17,1.14.4,2.3.74,3.51.89.61.08,1.21.26,1.82.29,1.12.05,2.23.22,3.36.18,1.39-.05,2.78.04,4.16-.09.38-.04.76-.01,1.12-.09.95-.21,1.93-.3,2.88-.52,1.32-.31,2.63-.64,3.8-1.36.29-.18.69-.37.62-.8-.09-.54-.26-1.07-.41-1.6-.06-.21-.19-.26-.38-.13-.96.63-2.04.99-3.14,1.27-.97.25-1.96.39-2.96.49-1.01.1-2.01.29-3.02.31Z"/>
  <path className="cls-1" d="m20.53,42.15c-.29.02-.58.06-.86.06-.68-.01-1.37-.09-2.04-.05-.33.02-.67.08-1.01.05-.9-.08-1.8.05-2.7,0-.82-.06-1.64.07-2.46,0-.77-.06-1.54-.01-2.3.02-.29.01-.56-.17-.89-.02-.21.1-.42-.58-.28-.96.16-.42.52-.7.77-1.05.3-.41.59-.85.97-1.21.24-.22-.02-.31-.15-.41-.82-.58-1.65-1.16-2.48-1.74-1.4-.98-2.77-2.02-4.21-2.95-.22-.14-.42-.3-.62-.46-.29-.23-.36-.91-.13-1.21.67-.9,1.36-1.79,2.15-2.59,1.04-1.03,2.15-1.99,3.42-2.74.67-.39.62-.37.87.23.42,1,.96,1.93,1.9,2.55.27.18.66.22.79.57.11.29.23.57.36.86.28.61.52,1.24.83,1.84.21.41.39.85.59,1.26.24.48.54.93.78,1.41.27.55.61,1.06.97,1.55.43.6.9,1.18,1.35,1.76.78.99,1.74,1.74,2.76,2.42.48.32,1.01.64,1.61.81Z"/>
  <path className="cls-1" d="m26.01,42.08c.45-.02.77-.32,1.15-.47.74-.29,1.31-.84,1.9-1.35.64-.54,1.14-1.21,1.66-1.86.44-.56.82-1.16,1.21-1.75.55-.83.98-1.72,1.46-2.58.54-.99.93-2.05,1.47-3.04.11-.2.11-.48.22-.69.16-.29.38-.49.73-.66.53-.25.95-.73,1.3-1.25.31-.46.6-.9.8-1.43.11-.29.5-.23.74-.11.57.29,1.08.67,1.58,1.08,1.43,1.17,2.69,2.5,3.82,3.97.48.62.5,1.2-.22,1.7-1.16.8-2.31,1.61-3.46,2.42-1.22.85-2.43,1.72-3.65,2.56-.3.21-.09.38.02.5.55.6,1.02,1.26,1.54,1.87.25.3.2.63.09.95-.05.14-.1.42-.35.15-.02-.02-.08-.03-.11-.02-.65.3-1.32.1-1.98.11-.59,0-1.19.07-1.77.03-.85-.06-1.7.06-2.54,0-.86-.06-1.72.07-2.58,0-.9-.07-1.8.04-2.7,0-.11,0-.24.04-.34-.13Z"/>
  <path className="cls-1" d="m9.62,26.44c.27-.04.45.14.72.34.49.36.71.96,1.24,1.25.16.09.29.26.48.22.46-.1.57.22.69.54.41,1.13.91,2.23,1.43,3.31.44.92.92,1.82,1.44,2.7.79,1.33,1.69,2.56,2.8,3.65.95.93,2.01,1.67,3.3,2.03,1.82.51,3.48.15,5.03-.93.74-.52,1.38-1.14,1.99-1.79.61-.65,1.12-1.41,1.58-2.18.46-.77.92-1.54,1.32-2.34.46-.91.87-1.85,1.28-2.79.29-.67.55-1.35.82-2.03.06-.16.18-.25.34-.26.84-.07,1.34-.57,1.68-1.28.15-.31.33-.54.73-.46.18.03.37,0,.55,0,.54,0,.64.14.37.62-.33.61-.66,1.22-1.17,1.71-.33.31-.67.61-1.12.73-.18.05-.22.12-.27.25-.24.61-.49,1.22-.78,1.81-.33.66-.57,1.36-.93,1.99-.28.49-.53.99-.78,1.48-.29.56-.66,1.07-.97,1.62-.32.58-.76,1.11-1.16,1.65-.54.72-1.22,1.31-1.88,1.91-.61.56-1.33.96-2.09,1.31-.43.2-.88.4-1.3.48-.58.11-1.19.17-1.8.16-.83-.01-1.62-.15-2.38-.45-.85-.34-1.67-.75-2.41-1.35-.9-.72-1.67-1.53-2.43-2.37-.44-.49-.79-1.08-1.12-1.64-.42-.73-.92-1.42-1.27-2.19-.28-.61-.57-1.22-.88-1.82-.41-.8-.76-1.64-1.06-2.49-.06-.17-.21-.26-.36-.32-.72-.35-1.28-.88-1.7-1.54-.25-.39-.48-.8-.63-1.26-.09-.3.05-.26.19-.28.14-.02.29,0,.5,0Z"/>
  <path className="cls-1" d="m18.74,57.26c-.37.13-.74.14-1.11,0,0-2.73,0-5.45.01-8.18.03,0,.05-.01.08-.02.66-.13,1.06.15,1.44.71.7,1.03,1.48,1.99,2.24,2.98.56.74,1.13,1.48,1.69,2.22.35.18.23-.13.23-.25,0-1.49,0-2.99,0-4.48,0-.42-.04-.84.03-1.25.36,0,.82-.16,1.07.06.23.2.07.67.07,1.02,0,2.24,0,4.49,0,6.73,0,.19.1.47-.2.51-.3.04-.65.17-.9-.15-.62-.78-1.23-1.56-1.84-2.35-.79-1.02-1.58-2.04-2.37-3.06-.09-.11-.12-.27-.27-.33-.31-.05-.16.2-.16.29-.02,1.85-.02,3.7-.02,5.55Z"/>
  <path className="cls-1" d="m40.52,49c1.26,0,2.52-.05,3.78.01.84.04,1.69.2,2.18,1.03.62,1.06.56,2.89-1.04,3.58-.06.02-.13.02-.19.02-.08,0-.17,0-.2.08-.05.13.08.13.15.18.37.27.57.66.78,1.05.4.76.83,1.51,1.28,2.32-.48,0-.89,0-1.31,0-.2,0-.24-.2-.3-.32-.38-.74-.77-1.48-1.18-2.2-.24-.43-.54-.74-1.04-.81-.41-.15-.84-.04-1.26-.06-.15,0-.34-.09-.46.09,0,.98-.02,1.97,0,2.95,0,.35-.11.48-.45.43-.25-.04-.52.08-.76-.07,0-2.07,0-4.13.01-6.2,0-.69.01-1.39.02-2.08Zm3.94,1.01s-.07-.05-.1-.05c-.85,0-1.7-.01-2.55-.01-.04,0-.08.05-.12.08,0,.86,0,1.73-.01,2.59,0,.26.09.3.32.3.72-.01,1.44,0,2.16,0,.78,0,1.31-.42,1.44-1.17.08-.5.09-1.02-.38-1.4-.22-.18-.5-.25-.76-.34Z"/>
  <path className="cls-1" d="m5.71,53.57c-1.37,0-2.73.01-4.1,0-.29,0-.38.07-.38.37.02,1,0,2,.01,2.99,0,.31-.11.44-.4.42-.27-.02-.54.08-.8-.07,0-2.62,0-5.24,0-7.85,0-.13.02-.26-.05-.38.35-.11.7-.03,1.05-.05.26-.01.19.2.19.34,0,1.06,0,2.12,0,3.18.09.18.25.1.38.1,1.27,0,2.54,0,3.81.01.35,0,.47-.07.47-.45-.02-1.06,0-2.12.02-3.18.3,0,.6,0,.9-.01.21-.01.27.07.27.27,0,2.59,0,5.19,0,7.78,0,.19-.07.25-.25.24-.31-.01-.63-.01-.94-.02,0-1.12,0-2.23-.01-3.35,0-.13.09-.34-.18-.34Z"/>
  <path className="cls-1" d="m15.75,54.62c-.08.29-.15.59-.24.88-.28.92-.93,1.46-1.83,1.73-.17.05-.35.08-.52.13-.53,0-1.07,0-1.6,0-1.63-.2-2.47-1.24-2.59-2.89,0-1.43,0-2.86.01-4.29,0-.39-.04-.79.03-1.18.35,0,.7,0,1.05,0,.14.12.1.29.1.44,0,1.53,0,3.06,0,4.59,0,.17-.04.34.07.49,0,1.19,1.09,2.15,2.43,1.9.44-.08.87-.17,1.18-.47.37-.36.59-.83.65-1.36.13-.16.07-.35.07-.53,0-1.52,0-3.04,0-4.56,0-.15-.07-.32.08-.44.31,0,.62,0,.93,0,.27.05.16.26.16.41,0,1.72,0,3.44,0,5.17Z"/>
  <path className="cls-1" d="m38.87,56.32c.12.25.03.51.06.77.02.17-.1.18-.23.18-1.65,0-3.31,0-4.96,0-.31,0-.24-.2-.24-.37,0-2.15,0-4.31,0-6.46,0-.35.02-.71,0-1.06-.02-.3.06-.41.39-.4,1.56.02,3.13.02,4.69,0,.29,0,.42.06.38.37-.02.18-.01.37-.02.55-.16.01-.31.04-.47.04-1.1,0-2.2,0-3.3,0-.13,0-.29-.07-.4.08,0,0,0,0,0,0-.1.08-.07.19-.07.29,0,.66.01,1.31,0,1.97,0,.29.1.35.37.35,1.21-.01,2.41,0,3.62,0q.1.96-.84.96c-1.01,0-2.02,0-3.03,0-.14.07-.1.2-.1.31,0,.69.01,1.39,0,2.08,0,.31.11.37.39.37,1.27-.01,2.54,0,3.81,0Z"/>
  <path className="cls-1" d="m28.34,50.02c-.81,0-1.63-.01-2.44,0-.27,0-.39-.05-.38-.37.02-.66,0-.66.67-.66,2.06,0,4.12,0,6.18,0,.14.34.15.68-.01,1.02-.88,0-1.75,0-2.63.01-.15.09-.09.23-.09.35,0,.51,0,1.02,0,1.54,0,1.79-.01,3.57-.02,5.36-.39,0-.78,0-1.16,0,0-2.27,0-4.55-.02-6.82,0-.14.08-.32-.1-.43Z"/>
  <path className="cls-2" d="m19.78,7.09c-.3,0-.61,0-.91,0,.3-.1.61-.1.91,0Z"/>
</svg>